<?xml version="1.0" encoding="UTF-8" standalone="no"?>
<svg
   data-name="Layer 1"
   width="864.12793"
   height="269.14798"
   viewBox="0 0 864.12795 269.14797"
   version="1.1"
   id="svg74"
   xmlns="http://www.w3.org/2000/svg"
   xmlns:svg="http://www.w3.org/2000/svg">
  <defs
     id="defs78" />
  <path
     d="m 264.98877,115.83999 a 6.72948,6.72948 0 0 0 -1.7,-2.67 6.42983,6.42983 0 0 0 -0.92,-0.71 c -2.61,-1.74 -6.51,-2.13 -8.99,0 a 5.81012,5.81012 0 0 0 -0.69,0.71 q -1.11,1.365 -2.28,2.67 c -1.28,1.46 -2.59,2.87 -3.96,4.24 -0.39,0.38 -0.78,0.77 -1.18,1.15 -0.23,0.23 -0.46,0.45 -0.69,0.67 -0.88,0.84 -1.78,1.65 -2.69,2.45 -0.48,0.43 -0.96,0.85 -1.45,1.26 -0.73,0.61 -1.46,1.22 -2.2,1.81 -0.07,0.05 -0.14,0.1 -0.21,0.16 -0.02,0.01 -0.03,0.03 -0.05,0.04 -0.01,0 -0.02,0 -0.03,0.02 a 0.17861,0.17861 0 0 0 -0.07,0.05 c -0.22,0.15 -0.37,0.25 -0.48,0.34 0.04,-0.0199 0.08,-0.05 0.12,-0.07 -0.18,0.14 -0.37,0.28 -0.55,0.42 -1.75,1.29 -3.54,2.53 -5.37,3.69 a 99.21022,99.21022 0 0 1 -14.22,7.55 c -0.33,0.13 -0.67,0.27 -1.01,0.4 a 85.96993,85.96993 0 0 1 -40.85,6.02 q -2.13008,-0.165 -4.26,-0.45 c -1.64,-0.24 -3.27,-0.53 -4.89,-0.86 a 97.93186,97.93186 0 0 1 -18.02,-5.44 118.65185,118.65185 0 0 1 -20.66,-12.12 c -1,-0.71 -2.01,-1.42 -3.02,-2.11 1.15,-2.82 2.28,-5.64 3.38,-8.48 0.55,-1.37 1.08,-2.74 1.6,-4.12 4.09,-10.63 7.93,-21.36 11.61,-32.13 q 5.58,-16.365 10.53,-32.92 0.51,-1.68 0.99,-3.36 2.595,-8.745 4.98,-17.53 c 0.15,-0.56994 0.31,-1.12994 0.45,-1.7 q 0.68994,-2.52 1.35,-5.04 c 1,-3.79 -1.26,-8.32 -5.24,-9.23 a 7.63441,7.63441 0 0 0 -9.22,5.24 c -0.43,1.62 -0.86,3.23 -1.3,4.85 q -3.165,11.74494 -6.66,23.41 -0.51,1.68 -1.02,3.36 -7.71,25.41 -16.93,50.31 -1.11,3.015 -2.25,6.01 c -0.37,0.98 -0.74,1.96 -1.12,2.94 -0.73,1.93 -1.48,3.86 -2.23,5.79 -0.43006,1.13 -0.87006,2.26 -1.31,3.38 -0.29,0.71 -0.57,1.42 -0.85,2.12 a 41.80941,41.80941 0 0 0 -8.81,-2.12 l -0.48,-0.06 a 27.397,27.397 0 0 0 -7.01,0.06 23.91419,23.91419 0 0 0 -17.24,10.66 c -4.77,7.51 -4.71,18.25 1.98,24.63 6.89,6.57 17.32,6.52 25.43,2.41 a 28.35124,28.35124 0 0 0 10.52,-9.86 50.56939,50.56939 0 0 0 2.74,-4.65 c 0.21,0.14 0.42,0.28 0.63,0.43 0.8,0.56 1.6,1.13 2.39,1.69 a 111.73777,111.73777 0 0 0 14.51,8.91 108.35887,108.35887 0 0 0 34.62,10.47 c 0.27,0.03 0.53,0.07 0.8,0.1 1.33,0.17 2.67,0.3 4.01,0.41 a 103.78229,103.78229 0 0 0 55.58,-11.36 q 2.175,-1.125 4.31,-2.36 3.315,-1.92 6.48,-4.08 c 1.15,-0.78 2.27,-1.57 3.38,-2.4 a 101.04244,101.04244 0 0 0 13.51,-11.95 q 2.35491,-2.475 4.51,-5.11005 a 8.0612,8.0612 0 0 0 2.2,-5.3 7.5644,7.5644 0 0 0 -0.5,-2.63995 z m -165.59,23.82 c 0.21,-0.15 0.42,-0.31 0.62,-0.47 -0.06,0.15 -0.35001,0.32 -0.61997,0.47 z m 3.21,-3.23 c -0.23,0.26 -0.44,0.52 -0.67,0.78 a 23.36609,23.36609 0 0 1 -2.25,2.2 c -0.11,0.1 -0.23,0.2 -0.35,0.29 a 0.00976,0.00976 0 0 0 -0.01,0.01 3.80417,3.80417 0 0 0 -0.42005,0.22 q -0.645,0.39 -1.31994,0.72 a 17.00459,17.00459 0 0 1 -2.71,0.75 16.79925,16.79925 0 0 1 -2.13,0.02 h -0.02 a 14.82252,14.82252 0 0 1 -1.45,-0.4 c -0.24,-0.12 -0.47,-0.25994 -0.7,-0.4 -0.09,-0.08 -0.17005,-0.16 -0.22,-0.21 a 2.44015,2.44015 0 0 1 -0.26995,-0.29 0.0098,0.0098 0 0 0 -0.01,-0.01 c -0.11005,-0.2 -0.23005,-0.4 -0.34,-0.6 a 0.031,0.031 0 0 1 -0.01,-0.02 c -0.08,-0.25 -0.15,-0.51 -0.21,-0.77 a 12.51066,12.51066 0 0 1 0.01,-1.37 13.4675,13.4675 0 0 1 0.54,-1.88 11.06776,11.06776 0 0 1 0.69,-1.26 c 0.02,-0.04 0.12,-0.2 0.23,-0.38 0.01,-0.01 0.01,-0.01 0.01,-0.02 0.15,-0.17 0.3,-0.35 0.46,-0.51 0.27,-0.3 0.56,-0.56 0.85,-0.83 a 18.02212,18.02212 0 0 1 1.75,-1.01 19.48061,19.48061 0 0 1 2.93,-0.79 24.98945,24.98945 0 0 1 4.41,0.04 30.30134,30.30134 0 0 1 4.1,1.01 36.94452,36.94452 0 0 1 -2.77,4.54 c -0.04,0.06 -0.08,0.12 -0.12007,0.17 z m -11.12,-3.29 a 2.18029,2.18029 0 0 1 -0.31,0.38995 1.40868,1.40868 0 0 1 0.31,-0.38995 z"
     fill="#3f3d56"
     id="path30" />
  <path
     d="m 234.92877,13.70999 q -0.13494,4.71 -0.27,9.42 -0.285,10.455 -0.59,20.92 -0.315,11.775 -0.66,23.54 -0.165,6.07507 -0.34,12.15 -0.465,16.365 -0.92,32.72 c -0.03,1.13 -0.07,2.25 -0.1,3.38 q -0.225,8.11506 -0.45,16.23 -0.255,8.805 -0.5,17.61 -0.18,6.59994 -0.37,13.21 -1.34994,47.895 -2.7,95.79 a 7.64844,7.64844 0 0 1 -7.5,7.5 7.56114,7.56114 0 0 1 -7.5,-7.5 q 0.75,-26.94 1.52,-53.88 0.675,-24.36 1.37,-48.72 0.225,-8.025 0.45,-16.06 0.345,-12.09 0.68,-24.18 c 0.03,-1.13 0.07,-2.25 0.1,-3.38 0.02,-0.99 0.05,-1.97 0.08,-2.96 q 0.66,-23.475 1.32,-46.96 0.27,-9.24 0.52,-18.49 0.3,-10.545 0.6,-21.08 c 0.09,-3.09 0.17005,-6.17 0.26,-9.26 a 7.64844,7.64844 0 0 1 7.5,-7.5 7.56116,7.56116 0 0 1 7.5,7.5 z"
     fill="#3f3d56"
     id="path32" />
  <path
     d="m 646.35686,15.79119 a 893.23753,893.23753 0 0 1 -28.16112,87.94127 c -3.007,7.94641 -6.08319,15.877 -9.3715,23.71185 l 0.75606,-1.7916 a 54.58274,54.58274 0 0 1 -5.58953,10.61184 q -0.22935,0.32119 -0.46685,0.63642 1.16559,-1.49043 0.4428,-0.589 c -0.25405,0.30065 -0.5049,0.60219 -0.7676,0.89546 a 23.66436,23.66436 0 0 1 -2.2489,2.20318 q -0.30139,0.25767 -0.61188,0.5043 l 0.93783,-0.729 c -0.10884,0.25668 -0.87275,0.59747 -1.11067,0.74287 a 18.25362,18.25362 0 0 1 -2.40479,1.21853 l 1.7916,-0.75606 a 19.0859,19.0859 0 0 1 -4.23122,1.16069 l 1.9938,-0.26791 a 17.02055,17.02055 0 0 1 -4.29785,0.046 l 1.99379,0.2679 a 14.0022,14.0022 0 0 1 -3.40493,-0.917 l 1.79159,0.75606 a 12.01175,12.01175 0 0 1 -1.67882,-0.89614 c -0.27135,-0.17688 -1.10526,-0.80852 -0.0149,0.0246 1.13336,0.86595 0.14562,0.0743 -0.0876,-0.15584 -0.19427,-0.19171 -0.36962,-0.4 -0.55974,-0.595 -0.88208,-0.90454 0.99637,1.55662 0.39689,0.49858 a 18.18179,18.18179 0 0 1 -0.87827,-1.63672 l 0.75606,1.7916 a 11.92493,11.92493 0 0 1 -0.728,-2.65143 l 0.26791,1.9938 a 13.65147,13.65147 0 0 1 -0.003,-3.40491 l -0.2679,1.9938 a 15.96371,15.96371 0 0 1 0.99486,-3.68011 l -0.75606,1.7916 a 16.72914,16.72914 0 0 1 1.17794,-2.29848 6.72934,6.72934 0 0 1 0.72851,-1.0714 c 0.0492,0.0159 -1.26865,1.51278 -0.56937,0.757 0.1829,-0.19767 0.354,-0.40592 0.539,-0.602 0.29617,-0.31382 0.61354,-0.60082 0.92561,-0.89791 1.04458,-0.99442 -1.46188,0.966 -0.25652,0.17907 a 19.0489,19.0489 0 0 1 2.74925,-1.49923 l -1.79159,0.75606 a 20.31136,20.31136 0 0 1 4.99523,-1.33984 l -1.9938,0.2679 a 25.62828,25.62828 0 0 1 6.46062,0.0765 l -1.9938,-0.2679 a 33.21056,33.21056 0 0 1 7.89178,2.2199 l -1.7916,-0.75606 c 5.38965,2.31383 10.16308,5.74926 14.928,9.118 a 111.94962,111.94962 0 0 0 14.50615,8.9065 108.38849,108.38849 0 0 0 34.62226,10.47371 103.93268,103.93268 0 0 0 92.58557,-36.75192 8.07773,8.07773 0 0 0 2.1967,-5.3033 7.63232,7.63232 0 0 0 -2.1967,-5.3033 c -2.75154,-2.52586 -7.94926,-3.239 -10.6066,0 a 95.63575,95.63575 0 0 1 -8.10664,8.72692 q -2.01736,1.914 -4.14232,3.70983 -1.21364,1.02588 -2.46086,2.01121 c -0.3934,0.31081 -1.61863,1.13807 0.26309,-0.19744 -0.43135,0.30614 -0.845,0.64036 -1.27058,0.95478 A 99.26881,99.26881 0 0 1 717.8961,139.9442 l 1.79159,-0.75606 a 96.8364,96.8364 0 0 1 -24.17119,6.62249 l 1.99379,-0.2679 a 97.64308,97.64308 0 0 1 -25.75362,-0.0381 l 1.99379,0.2679 a 99.79982,99.79982 0 0 1 -24.857,-6.77027 l 1.7916,0.75607 a 116.02515,116.02515 0 0 1 -21.7364,-12.59112 86.87725,86.87725 0 0 0 -11.113,-6.99417 42.8238,42.8238 0 0 0 -14.43784,-4.38851 c -9.43884,-1.11076 -19.0571,2.56562 -24.24624,10.72035 -4.77557,7.50482 -4.71394,18.24362 1.97369,24.62519 6.8877,6.5725 17.31846,6.51693 25.43556,2.40567 7.81741,-3.95946 12.51288,-12.18539 15.815,-19.94186 7.43109,-17.45514 14.01023,-35.31364 20.1399,-53.263 q 9.09651,-26.63712 16.49855,-53.81332 0.91661,-3.36581 1.80683,-6.73869 c 1.001,-3.78869 -1.26094,-8.32 -5.23829,-9.22589 a 7.63317,7.63317 0 0 0 -9.22589,5.23829 z"
     fill="#3f3d56"
     id="path34" />
  <path
     d="m 721.1895,13.70956 -2.69954,95.79311 -2.68548,95.29418 -1.5185,53.88362 a 7.56465,7.56465 0 0 0 7.5,7.5 7.64923,7.64923 0 0 0 7.5,-7.5 l 2.69955,-95.79311 2.68548,-95.29418 1.51849,-53.88362 a 7.56465,7.56465 0 0 0 -7.5,-7.5 7.64923,7.64923 0 0 0 -7.5,7.5 z"
     fill="#3f3d56"
     id="path36" />
  <path
     d="m 461.59134,231.93505 h 2.32885 V 125.89341 h 54.32863 V 123.5705 H 463.92019 V 78.82613 h 41.95569 q -0.92256,-1.17339 -1.89893,-2.31694 H 463.92019 V 46.9563 c -0.7703,-0.32846 -1.54659,-0.64493 -2.32885,-0.9435 v 30.49639 h -45.652 v -37.8652 c -0.78227,0.0358 -1.55258,0.0896 -2.3289,0.15527 v 37.71 h -36.4201 V 48.25808 c -0.78227,0.34636 -1.55258,0.71061 -2.31694,1.0928 v 27.15831 h -30.6158 v 2.31694 h 30.6158 v 44.74437 h -30.6158 v 2.32291 h 30.6158 v 106.04164 h 2.31694 V 125.89341 a 36.41283,36.41283 0 0 1 36.4201,36.42007 v 69.62157 h 2.3289 V 125.89341 h 45.652 z M 377.19034,123.5705 V 78.82613 h 36.4201 v 44.74437 z m 38.749,0 V 78.82613 h 0.91362 a 44.74135,44.74135 0 0 1 44.73842,44.74437 z"
     opacity="0.2"
     id="path38" />
  <path
     d="m 447.36877,200.13999 a 63.05854,63.05854 0 0 1 -20.05,33.7 c -0.74,0.64 -1.48,1.26 -2.25,1.87 q -2.805,0.25506 -5.57,0.52 c -1.53,0.14 -3.04,0.29 -4.54,0.43 l -0.27,0.03 -0.19,-1.64 -0.76,-6.64 a 37.623,37.623 0 0 1 -3.3,-32.44 c 2.64,-7.12 7.42,-13.41 12.12,-19.65 6.49,-8.62 12.8,-17.14 13.03,-27.65 a 60.54415,60.54415 0 0 1 7.9,13.33 16.432,16.432 0 0 0 -5.12,3.76995 c -0.41,0.45 -0.82,1.08 -0.54,1.62006 0.24,0.46 0.84,0.57 1.36,0.62994 1.25,0.13 2.51,0.26 3.76,0.39 1,0.11 2,0.21 3,0.32 a 63.99025,63.99025 0 0 1 2.45,12.18 61.18851,61.18851 0 0 1 -1.03,19.23005 z"
     fill="#3f3d56"
     id="path40" />
  <path
     d="m 480.56879,173.92999 c -5.9,4.29 -9.35,10.46 -12.03,17.26 a 16.62776,16.62776 0 0 0 -7.17,4.58 c -0.41,0.45 -0.82,1.08 -0.54,1.62006 0.24,0.46 0.84,0.57 1.36,0.62994 1.25,0.13 2.51,0.26 3.76,0.39 -2.68,8.04 -5.14,16.36 -9.88,23.15 a 36.98942,36.98942 0 0 1 -12.03,10.91 38.49166,38.49166 0 0 1 -4.02,1.99 q -7.62,0.585 -14.95,1.25 -2.805,0.25506 -5.57,0.52 c -1.53,0.14 -3.04,0.29 -4.54,0.43 q -0.015,-0.825 0,-1.65 a 63.30382,63.30382 0 0 1 15.25,-39.86 c 0.45,-0.52 0.91,-1.03 1.38,-1.54 a 61.7925,61.7925 0 0 1 16.81,-12.7 62.65425,62.65425 0 0 1 32.17,-6.98 z"
     fill="#5dbd6e"
     id="path42" />
  <path
     d="m 421.22876,231.09999 -1.15,3.4 -0.58,1.73 c -1.53,0.14 -3.04,0.29 -4.54,0.43 l -0.27,0.03 c -1.66,0.17 -3.31,0.34 -4.96,0.51 -0.43,-0.5 -0.86,-1.01 -1.28,-1.53 a 62.03045,62.03045 0 0 1 8.07,-87.11 c -1.32,6.91 0.22,13.53 2.75,20.1 -0.27,0.11 -0.53,0.22 -0.78,0.34 a 16.432,16.432 0 0 0 -5.12,3.76995 c -0.41,0.45 -0.82,1.08 -0.54,1.62006 0.24,0.46 0.84,0.57 1.36,0.62994 1.25,0.13 2.51,0.26 3.76,0.39 1,0.11 2,0.21 3,0.32 q 0.705,0.075 1.41,0.15 c 0.07,0.15 0.13,0.29 0.2,0.44 2.85,6.18 5.92,12.39 7.65,18.83 a 43.66591,43.66591 0 0 1 1.02,4.91 37.604,37.604 0 0 1 -10,31.04005 z"
     fill="#5dbd6e"
     id="path44" />
  <path
     d="M 521.88691,86.06054 C 513.27815,69.26835 499.94086,55.13966 484.25472,44.75697 a 114.2374,114.2374 0 0 0 -52.5626,-18.37992 q -3.69043,-0.33535 -7.399,-0.39281 c -2.92141,-0.0437 -46.866,12.63176 -61.58712,22.98214 a 114.29462,114.29462 0 0 0 -35.333,39.527 102.49972,102.49972 0 0 0 -12.12557,51.6334 113.56387,113.56387 0 0 0 14.70268,51.47577 110.47507,110.47507 0 0 0 36.44425,38.74592 c 15.33787,9.78652 30.74507,35.73552 48.85442,36.65152 18.24576,0.923 39.05418,-23.55495 55.6951,-30.98707 a 104.42533,104.42533 0 0 0 41.72554,-34.005 110.24964,110.24964 0 0 0 19.599,-48.94777 c 2.57368,-18.08313 1.37415,-36.73271 -4.80123,-54.01627 a 111.85969,111.85969 0 0 0 -5.58024,-12.9833 c -1.77961,-3.50519 -6.996,-4.7959 -10.26142,-2.69063 a 7.67979,7.67979 0 0 0 -2.69064,10.26142 q 1.56766,3.08773 2.91536,6.27758 l -0.75606,-1.7916 a 101.15088,101.15088 0 0 1 6.87641,25.53816 l -0.26791,-1.99379 a 109.2286,109.2286 0 0 1 -0.0661,28.68252 l 0.26791,-1.9938 a 109.73379,109.73379 0 0 1 -7.55462,27.67419 l 0.75606,-1.79159 a 104.212,104.212 0 0 1 -6.67151,13.09835 q -1.92308,3.18563 -4.08062,6.22159 c -0.63172,0.8881 -1.28287,1.761 -1.939,2.63114 -0.85625,1.13555 1.16691,-1.48321 0.28228,-0.36941 -0.15068,0.18972 -0.30049,0.3801 -0.45182,0.5693 q -0.68121,0.85165 -1.3818,1.68765 A 93.61337,93.61337 0 0 1 486.687,208.45525 q -1.36615,1.19232 -2.77786,2.33115 c -0.46871,0.37832 -0.932,0.77269 -1.42079,1.12472 0.0186,-0.0134 1.57956,-1.19945 0.65556,-0.511 -0.2905,0.21644 -0.57851,0.43619 -0.86961,0.65184 q -2.90994,2.1558 -5.97433,4.092 a 103.48509,103.48509 0 0 1 -14.75565,7.7131 l 1.7916,-0.75606 a 109.21493,109.21493 0 0 1 -27.59663,7.55154 l 1.9938,-0.26791 a 108.15361,108.15361 0 0 1 -28.58907,0.0506 l 1.99379,0.2679 a 99.835,99.835 0 0 1 -25.09531,-6.78448 l 1.79159,0.75607 a 93.64314,93.64314 0 0 1 -13.41605,-6.99094 q -3.17437,-2 -6.18358,-4.24743 c -0.2862,-0.21359 -0.56992,-0.43038 -0.855,-0.64549 -0.9155,-0.69088 0.65765,0.50965 0.67021,0.51787 a 19.16864,19.16864 0 0 1 -1.535,-1.22469 q -1.45353,-1.18358 -2.86136,-2.4218 a 101.98931,101.98931 0 0 1 -10.49322,-10.70945 q -1.21308,-1.43379 -2.37407,-2.91054 c -0.33524,-0.4263 -0.9465,-1.29026 0.40424,0.5289 -0.17775,-0.23939 -0.36206,-0.47414 -0.54159,-0.71223 q -0.64657,-0.85751 -1.27568,-1.72793 -2.203,-3.048 -4.18787,-6.24586 a 109.29037,109.29037 0 0 1 -7.8054,-15.10831 l 0.75606,1.7916 a 106.58753,106.58753 0 0 1 -7.34039,-26.837 l 0.26791,1.9938 a 97.86589,97.86589 0 0 1 -0.0484,-25.63587 l -0.2679,1.9938 a 94.673,94.673 0 0 1 6.59455,-23.95916 l -0.75606,1.7916 a 101.55725,101.55725 0 0 1 7.19519,-13.85624 q 2.0655,-3.32328 4.37767,-6.4847 0.52528,-0.71832 1.06244,-1.42786 c 0.324,-0.4279 1.215,-1.49333 -0.30537,0.38842 0.14906,-0.18449 0.29252,-0.37428 0.43942,-0.56041 q 1.26882,-1.60756 2.59959,-3.1649 a 107.40164,107.40164 0 0 1 10.88325,-11.02083 q 1.47408,-1.29171 2.99464,-2.52906 0.6909,-0.56218 1.39108,-1.11284 c 0.18664,-0.14673 0.37574,-0.29073 0.56152,-0.43858 -1.99743,1.58953 -0.555,0.43261 -0.10157,0.0929 q 3.13393,-2.34833 6.43534,-4.46134 a 103.64393,103.64393 0 0 1 15.38655,-8.10791 l -1.7916,0.75606 c 7.76008,-3.25839 42.14086,-10.9492 48.394,-10.10973 l -1.99379,-0.26791 a 106.22471,106.22471 0 0 1 26.71983,7.38233 l -1.7916,-0.75606 a 110.31334,110.31334 0 0 1 12.6002,6.32922 q 3.04344,1.78405 5.96742,3.76252 1.38351,0.93658 2.73809,1.915 0.677,0.48917 1.34626,0.98885 c 0.24789,0.185 0.49386,0.37253 0.74135,0.558 1.03924,0.779 -1.43148,-1.1281 -0.34209,-0.26655 a 110.84261,110.84261 0 0 1 10.36783,9.2532 q 2.401,2.445 4.63686,5.04515 1.14659,1.33419 2.24643,2.70757 c 0.36436,0.45495 1.60506,2.101 0.0845,0.0846 0.37165,0.49285 0.74744,0.98239 1.11436,1.47884 a 97.97718,97.97718 0 0 1 8.39161,13.53807 c 1.79317,3.49775 6.98675,4.80186 10.26142,2.69064 a 7.67666,7.67666 0 0 0 2.69061,-10.26147 z"
     fill="#3f3d56"
     id="path46" />
  <path
     d="m 434.49684,208.45566 a 3.77983,3.77983 0 0 1 -2.73939,-6.55137 c 0.0953,-0.37882 0.16368,-0.65085 0.259,-1.02968 q -0.0512,-0.12366 -0.1029,-0.24717 c -3.47987,-8.29769 -25.685,14.83336 -26.645,22.63179 a 30.029,30.029 0 0 0 0.52714,10.32752 120.39223,120.39223 0 0 1 -10.95163,-50.00276 116.20247,116.20247 0 0 1 0.72078,-12.96332 q 0.59712,-5.293 1.65679,-10.51055 a 121.78667,121.78667 0 0 1 24.1515,-51.61646 c 6.87378,0.38364 12.898,-0.66348 13.47967,-13.98532 0.10346,-2.36972 1.86113,-4.42156 2.24841,-6.756 -0.65621,0.0861 -1.32321,0.13985 -1.97941,0.18285 -0.20444,0.0107 -0.41958,0.0215 -0.624,0.0323 l -0.0771,0.003 a 3.745,3.745 0 0 1 -3.07566,-6.10115 q 0.425,-0.52305 0.85054,-1.04557 c 0.43036,-0.53793 0.87143,-1.06507 1.30171,-1.60292 a 1.865,1.865 0 0 0 0.13986,-0.16144 c 0.49494,-0.61322 0.98971,-1.21564 1.48465,-1.82885 a 10.82911,10.82911 0 0 0 -3.55014,-3.43169 c -4.95941,-2.90463 -11.80146,-0.89293 -15.38389,3.59313 -3.59313,4.486 -4.27083,10.77947 -3.023,16.3843 a 43.39764,43.39764 0 0 0 6.003,13.3828 c -0.269,0.34429 -0.54872,0.67779 -0.81765,1.02209 a 122.57366,122.57366 0 0 0 -12.79359,20.2681 c 1.0163,-7.93863 -11.41159,-36.60795 -16.21776,-42.68052 -5.773,-7.29409 -17.61108,-4.11077 -18.62815,5.13562 q -0.0148,0.13428 -0.0288,0.26849 1.07082,0.60411 2.0964,1.28237 a 5.12707,5.12707 0 0 1 -2.06713,9.33031 l -0.10452,0.0161 c -9.55573,13.64367 21.07745,49.1547 28.74518,41.18139 a 125.11045,125.11045 0 0 0 -6.73449,31.69282 118.66429,118.66429 0 0 0 0.0861,19.15986 l -0.0323,-0.22593 c -1.70375,-13.88181 -30.93138,-34.52207 -39.46638,-32.80281 -4.91675,0.99041 -9.75952,0.76525 -9.01293,5.72484 q 0.0179,0.11874 0.0363,0.2375 a 34.4418,34.4418 0 0 1 3.862,1.86105 q 1.07082,0.60423 2.09639,1.28237 a 5.12712,5.12712 0 0 1 -2.06712,9.33039 l -0.10464,0.0161 c -0.0753,0.0108 -0.13987,0.0216 -0.21507,0.0324 -4.34967,14.96631 27.90735,39.12 47.5177,31.43461 h 0.0108 a 125.07484,125.07484 0 0 0 8.402,24.52806 h 30.01457 c 0.10765,-0.3335 0.20443,-0.67779 0.3013,-1.01129 a 34.102,34.102 0 0 1 -8.30521,-0.49477 c 2.22693,-2.73257 4.45377,-5.48664 6.6807,-8.21913 a 1.86122,1.86122 0 0 0 0.13986,-0.16135 c 1.12956,-1.39849 2.26992,-2.78627 3.39948,-4.18476 l 6.1e-4,-0.002 a 49.95232,49.95232 0 0 0 -1.46367,-12.72495 z m -34.37066,-67.613 0.0158,-0.0213 -0.0158,0.0428 z m -6.64832,59.93237 -0.25822,-0.58084 c 0.0108,-0.41957 0.0108,-0.83914 0,-1.26942 0,-0.11845 -0.0215,-0.23672 -0.0215,-0.35508 0.0968,0.74228 0.18285,1.48464 0.29042,2.22692 z"
     fill="#3f3d56"
     id="path48" />
  <circle
     cx="97.248779"
     cy="135"
     r="11"
     fill="#3f3d56"
     id="circle50" />
  <circle
     cx="229.24878"
     cy="255"
     r="11"
     fill="#3f3d56"
     id="circle52" />
  <circle
     cx="730.24878"
     cy="255"
     r="11"
     fill="#3f3d56"
     id="circle54" />
  <circle
     cx="757.24878"
     cy="115"
     r="11"
     fill="#3f3d56"
     id="circle56" />
  <circle
     cx="725.24878"
     cy="13"
     r="11"
     fill="#3f3d56"
     id="circle58" />
  <path
     d="m 266.24878,114.99999 a 10.949,10.949 0 1 1 -0.21,-2.16 10.9921,10.9921 0 0 1 0.21,2.16 z"
     fill="#3f3d56"
     id="path60" />
  <circle
     cx="486.24878"
     cy="45"
     r="11"
     fill="#3f3d56"
     id="circle62" />
  <path
     d="m 377.24878,44.99999 a 10.949,10.949 0 1 1 -0.21,-2.16 10.9921,10.9921 0 0 1 0.21,2.16 z"
     fill="#3f3d56"
     id="path64" />
  <path
     d="m 235.24878,12.99999 a 10.949,10.949 0 1 1 -0.21,-2.16 10.9921,10.9921 0 0 1 0.21,2.16 z"
     fill="#3f3d56"
     id="path66" />
  <circle
     cx="601.24878"
     cy="139"
     r="11"
     fill="#3f3d56"
     id="circle68" />
  <circle
     cx="428.24878"
     cy="34"
     r="16"
     fill="#3f3d56"
     id="circle70" />
  <path
     d="M 860.94068,266.84065 3.1906802,267.14798 a 1.19068,1.19068 0 1 1 0,-2.38136 L 860.94068,264.45928 a 1.19069,1.19069 0 0 1 0,2.38137 z"
     fill="#cacaca"
     id="path72" />
</svg>
